<svg viewBox="0 0 500 500" xmlns="http://www.w3.org/2000/svg"><g fill="none" fill-rule="evenodd" transform="translate(52 53)"><path d="m395.36 196.82c-.008-2.835-.075-5.655-.202-8.461v-159.99l-44.23 44.23c-36.2-44.31-91.27-72.61-152.95-72.61-64.19 0-121.22 30.64-157.27 78.09l72.5 73.26c7.105-13.14 17.198-24.426 29.368-32.95 12.657-9.877 30.591-17.953 55.4-17.953 2.997 0 5.31.35 7.01 1.01 30.737 2.426 57.38 19.389 73.07 44.01l-51.32 51.32c65-.255 138.43-.405 168.62.034" fill="#1a35ac"/><path d="m196.82 0c-2.835.008-5.655.075-8.461.202h-159.99l44.23 44.23c-44.31 36.2-72.61 91.27-72.61 152.95 0 64.19 30.64 121.22 78.09 157.27l73.26-72.5c-13.14-7.105-24.426-17.198-32.95-29.368-9.877-12.657-17.953-30.591-17.953-55.4 0-2.997.35-5.31 1.01-7.01 2.426-30.737 19.389-57.38 44.01-73.07l51.32 51.32c-.255-65-.405-138.43.034-168.62" fill="#3f86f4"/><path d="m0 197.38c.008 2.835.075 5.655.202 8.461v159.99l44.23-44.23c36.2 44.31 91.27 72.61 152.95 72.61 64.19 0 121.22-30.64 157.27-78.09l-72.5-73.26c-7.105 13.14-17.198 24.426-29.368 32.95-12.657 9.877-30.591 17.953-55.4 17.953-2.997 0-5.31-.35-7.01-1.01-30.737-2.426-57.38-19.389-73.07-44.01l51.32-51.32c-65 .255-138.43.405-168.62-.034" fill="#b3b3b3"/></g></svg>